<svg xmlns="http://www.w3.org/2000/svg" viewBox="0 0 512 512">
  <rect width="512" height="512" rx="64" fill="#111827"/>
  <g transform="translate(256,280)">
    <!-- Water wave -->
    <path d="M-160,20 Q-120,-20 -80,20 Q-40,60 0,20 Q40,-20 80,20 Q120,60 160,20 L160,80 L-160,80 Z" fill="#3B82F6" opacity="0.7"/>
    <path d="M-160,50 Q-120,10 -80,50 Q-40,90 0,50 Q40,10 80,50 Q120,90 160,50 L160,80 L-160,80 Z" fill="#2563EB" opacity="0.5"/>
  </g>
  <!-- Gauge needle -->
  <g transform="translate(256,200)">
    <circle r="80" fill="none" stroke="#F59E0B" stroke-width="12" stroke-dasharray="180 360" transform="rotate(-90)"/>
    <line x1="0" y1="0" x2="0" y2="-60" stroke="#EF4444" stroke-width="6" stroke-linecap="round" transform="rotate(30)"/>
    <circle r="10" fill="#F59E0B"/>
  </g>
  <!-- FL text -->
  <text x="256" y="440" text-anchor="middle" font-family="Arial,sans-serif" font-size="48" font-weight="bold" fill="white">FL FLOOD</text>
</svg>
